# xmcd
#
# Track frame offsets: 
#        150
#        23885
#        42827
#        55813
#        76027
#        110028
#
# Disc length: 1677 seconds
#
# Revision: 0
# Processed by: cddbd v1.5.2PL0 Copyright (c) Steve Scherf et al.
# Submitted via: ExactAudioCopy v1.3
#
DISCID=41068b06
DTITLE=Konstantin Kolesnichenko Quartet - Minor Differences
DYEAR=2017
DGENRE=Blues
TTITLE0=Joe's Blues
TTITLE1=Johnny Come Lately
TTITLE2=Clockface
TTITLE3=In The Wee Hours
TTITLE4=Volare
TTITLE5=Minor Differences
EXTD=
EXTT0=
EXTT1=
EXTT2=
EXTT3=
EXTT4=
EXTT5=
PLAYORDER=
